<svg xmlns="http://www.w3.org/2000/svg" viewBox="0 0 345 571"><g id="Calque_2" data-name="Calque 2"><path d="M175,274.47A138.06,138.06,0,1,0,313,412.53,138.05,138.05,0,0,0,175,274.47Zm96.73,183.76a102.17,102.17,0,0,1-22.54,33.89,99,99,0,0,1-33.45,21.65,107.51,107.51,0,0,1-79.66,0,99,99,0,0,1-33.48-21.65A102,102,0,0,1,80,458.23q-8.33-19.91-8.32-44.41c0-16.33,11.24-26.68,16.79-40,4.34-10.42,4.69-22.41,9.25-31.58a24.73,24.73,0,0,1,4.79-6.77A99.06,99.06,0,0,1,132,315.57q18-9.37,42.59-9.37c.42,0,.86,0,1.28,0s.87,0,1.3,0q24.6,0,42.56,9.35a99,99,0,0,1,29.44,20,24.55,24.55,0,0,1,4.8,6.77c4.57,9.17,4.92,21.16,9.25,31.58,5.55,13.28,16.79,23.63,16.79,40S277.21,445,271.68,458.23Z"/><path d="M175,274.47A138.06,138.06,0,1,0,313,412.53,138.05,138.05,0,0,0,175,274.47Zm96.73,183.76a102.17,102.17,0,0,1-22.54,33.89,99,99,0,0,1-33.45,21.65,107.51,107.51,0,0,1-79.66,0,99,99,0,0,1-33.48-21.65A102,102,0,0,1,80,458.23q-8.33-19.91-8.32-44.41c0-16.33,11.24-26.68,16.79-40,4.34-10.42,4.69-22.41,9.25-31.58a24.73,24.73,0,0,1,4.79-6.77A99.06,99.06,0,0,1,132,315.57q18-9.37,42.59-9.37c.42,0,.86,0,1.28,0s.87,0,1.3,0q24.6,0,42.56,9.35a99,99,0,0,1,29.44,20,24.55,24.55,0,0,1,4.8,6.77c4.57,9.17,4.92,21.16,9.25,31.58,5.55,13.28,16.79,23.63,16.79,40S277.21,445,271.68,458.23Z"/><path d="M96.08,57q1.55,3.16,3,6.4C98.1,61.25,97.11,59.12,96.08,57Z"/><path d="M127.13,216.9q-.15,17.79-1.2,37.7a6.87,6.87,0,0,1-.13,1.1,7.56,7.56,0,0,1-1.11,2.63A156.43,156.43,0,0,0,66.8,294.84C65.91,291.15,65,287.21,64,283c-2.5-10.94-5.14-23.43-7.56-36.86C50,210.53,45,168.27,47.48,130.73c2.28-34,9.35-68.54,24.26-99.77a8.67,8.67,0,0,1,5.07-4.51l.72-.21A8.66,8.66,0,0,1,80,26a8.53,8.53,0,0,1,6.45,3.22C93,37.65,102,52.56,109.91,77.05s14.68,58.51,16.66,105.22C127,193.12,127.23,204.64,127.13,216.9Z"/><path d="M99.07,63.41c-1-2.16-2-4.29-3-6.4Q97.63,60.18,99.07,63.41Z"/><path d="M292.6,244.8c-2.43,13.43-5.06,25.92-7.57,36.86h0q-1.08,4.62-2.08,8.87a156.2,156.2,0,0,0-58.91-34.06,7.51,7.51,0,0,1-.81-2.16,6.86,6.86,0,0,1-.13-1.11q-1.05-19.9-1.2-37.7c-.1-12.25.1-23.77.56-34.63,2-46.7,8.75-80.74,16.66-105.2s16.94-39.4,23.45-47.86a8.68,8.68,0,0,1,8.93-3q.36.09.72.21a8.64,8.64,0,0,1,5.07,4.51c14.92,31.23,22,65.77,24.26,99.77C304.08,166.89,299.05,209.15,292.6,244.8Z"/><rect x="161" y="351" width="29" height="83"/><rect x="161" y="453.5" width="29" height="29"/></g></svg>