<svg id="Calque_1" data-name="Calque 1" xmlns="http://www.w3.org/2000/svg" viewBox="0 0 256 256"><defs><style>.cls-1{fill:#766b99;}.cls-2{fill:#9082ba;}.cls-3{fill:#d3c8e8;}</style></defs><path class="cls-1" d="M59.69,178.05l39-44.43a2.46,2.46,0,0,1,3.29-.36c2.08,1.51,5.34,4,10.35,8.27a2.72,2.72,0,0,0,3.81-.29c7.62-8.8,18.74-22.19,25-29.78A8.06,8.06,0,0,1,152,110l12.27,8.71a8.07,8.07,0,0,1,3.36,7.39l-5.47,54.31a8.07,8.07,0,0,1-8,7.27l-89.8.36A6.09,6.09,0,0,1,59.69,178.05Z"/><path class="cls-2" d="M102.28,172.07l70.34-83.59a20.42,20.42,0,0,1,10.7-6.7c10.29-2.57,20.26,5.34,20.56,16l2,69.31a19.93,19.93,0,0,1-19.9,20.5l-76.37.12A9.49,9.49,0,0,1,102.28,172.07Z"/><rect class="cls-3" x="129.02" y="89.89" width="40" height="40" rx="20"/></svg>