<?xml version="1.0" encoding="utf-8"?>
<!-- Generator: Adobe Illustrator 25.2.0, SVG Export Plug-In . SVG Version: 6.00 Build 0)  -->
<svg version="1.1" id="Calque_1" xmlns="http://www.w3.org/2000/svg" xmlns:xlink="http://www.w3.org/1999/xlink" x="0px" y="0px"
	 viewBox="0 0 186 186" style="enable-background:new 0 0 186 186;" xml:space="preserve">
<g>
	<path d="M137.7,57C30.8,26.2,17.4,62.3,17.4,62.3s-0.5,30.9-0.5,55.7c26.4,31.5,118.5,8.4,121.6,7.6
		C138.5,117.9,138.6,122.3,137.7,57z M32.8,111c0-19-0.4-40-0.4-40s12.1-22.9,90.2-3.1c0,18.4,0.4,45.3,0.4,46.7
		C120.7,115.4,57.2,129.4,32.8,111z"/>
</g>
<polygon points="179.4,96.8 166.3,99.8 165.9,80.7 179,83.3 "/>
<polygon points="160.7,109.8 145,115 144.4,67.8 159.8,71.3 "/>
<polygon points="57.1,122.3 49.1,122.5 49.2,55.2 57.2,55.2 "/>
</svg>
