<svg id="Calque_1" data-name="Calque 1" xmlns="http://www.w3.org/2000/svg" viewBox="0 0 24 24"><defs><style>.cls-1{fill-rule:evenodd;}</style></defs><circle cx="12.28" cy="11.67" r="1.85"/><path class="cls-1" d="M9.51,11a.22.22,0,0,0,.33-.13,4.25,4.25,0,0,1,.85-1.3c.25-.84-6.11-2.87-7.08-1.21a.11.11,0,0,0,.07.16C5.21,9.22,8.56,10.43,9.51,11Z"/><path class="cls-1" d="M15.12,12.18a.23.23,0,0,0-.32.14A4.06,4.06,0,0,1,14,13.63c-.23.84,6.15,2.79,7.1,1.12A.11.11,0,0,0,21,14.6C19.45,13.9,16.08,12.73,15.12,12.18Z"/><path class="cls-1" d="M10.4,13.86a.22.22,0,0,0,0-.35,4,4,0,0,1-.7-1.39c-.6-.63-5.53,3.86-4.58,5.53,0,.06.1.06.16,0C6.72,16.7,9.44,14.4,10.4,13.86Z"/><path class="cls-1" d="M14.24,9.6a.21.21,0,0,0,0,.34,4.21,4.21,0,0,1,.72,1.39c.6.62,5.48-3.93,4.51-5.59a.12.12,0,0,0-.17,0C17.89,6.71,15.19,9,14.24,9.6Z"/><path class="cls-1" d="M13.26,14.36a.23.23,0,0,0-.28-.21,4.27,4.27,0,0,1-1.56-.09c-.84.21.58,6.72,2.5,6.73a.1.1,0,0,0,.1-.13C13.87,19,13.24,15.47,13.26,14.36Z"/><path class="cls-1" d="M11.48,8.91a.22.22,0,0,0,.28.21,4.22,4.22,0,0,1,1.56.07c.84-.22-.66-6.71-2.58-6.7a.1.1,0,0,0-.1.13C10.81,4.31,11.48,7.81,11.48,8.91Z"/></svg>