<svg id="Calque_1" data-name="Calque 1" xmlns="http://www.w3.org/2000/svg" viewBox="-4 -4 36 36"><defs><style>.cls-1{fill-rule:evenodd;}</style></defs><circle cx="12.19" cy="12.31" r="2"/><path class="cls-1" d="M11.24,9.11a.27.27,0,0,0,.34.25,2.12,2.12,0,0,1,1.23,0c1-.21-.93-7.53-2.52-7.81-.08,0-.14.08-.11.16A32.25,32.25,0,0,1,11.24,9.11Z"/><path class="cls-1" d="M12.89,15.59a.28.28,0,0,0-.31-.3,2.4,2.4,0,0,1-1-.07.21.21,0,0,0-.26.18c-.49,5,.18,7.35,1.7,7.79a.11.11,0,0,0,.13-.14A32.26,32.26,0,0,1,12.89,15.59Z"/><path class="cls-1" d="M9,11.49a.27.27,0,0,0,.39-.16A2.12,2.12,0,0,1,10,10.28c.32-.93-6.92-3.12-8-1.91a.12.12,0,0,0,.08.18A31.85,31.85,0,0,1,9,11.49Z"/><path class="cls-1" d="M15.36,13.43a.26.26,0,0,0-.39.12,2.22,2.22,0,0,1-.75,1c-.42.88,6.55,3.83,7.73,2.74a.11.11,0,0,0-.05-.19A32.56,32.56,0,0,1,15.36,13.43Z"/><path class="cls-1" d="M9.79,14.54a.26.26,0,0,0,.06-.41,2.09,2.09,0,0,1-.58-1.08c-.63-.75-6.21,4.36-5.71,5.89a.11.11,0,0,0,.19,0A32.23,32.23,0,0,1,9.79,14.54Z"/><path class="cls-1" d="M14.71,10.05a.28.28,0,0,0-.11.41,2.07,2.07,0,0,1,.46,1.14c.55.81,6.64-3.68,6.31-5.26a.12.12,0,0,0-.19,0A32,32,0,0,1,14.71,10.05Z"/></svg>